<mxfile host="65bd71144e">
    <diagram id="TEyw5OAJwl6fOPMXT0LS" name="Page-1">
        <mxGraphModel dx="1378" dy="789" grid="1" gridSize="10" guides="1" tooltips="1" connect="1" arrows="1" fold="1" page="1" pageScale="1" pageWidth="850" pageHeight="1100" math="0" shadow="0">
            <root>
                <mxCell id="0"/>
                <mxCell id="1" parent="0"/>
                <mxCell id="2" value="UserProfileFacade" style="swimlane;fontStyle=1;align=center;verticalAlign=top;childLayout=stackLayout;horizontal=1;startSize=26;horizontalStack=0;resizeParent=1;resizeParentMax=0;resizeLast=0;collapsible=1;marginBottom=0;" vertex="1" parent="1">
                    <mxGeometry x="40" y="150" width="280" height="60" as="geometry"/>
                </mxCell>
                <mxCell id="4" value="" style="line;strokeWidth=1;fillColor=none;align=left;verticalAlign=middle;spacingTop=-1;spacingLeft=3;spacingRight=3;rotatable=0;labelPosition=right;points=[];portConstraint=eastwest;strokeColor=inherit;" vertex="1" parent="2">
                    <mxGeometry y="26" width="280" height="8" as="geometry"/>
                </mxCell>
                <mxCell id="5" value="getUserProfile(userId: String); USerProfile" style="text;strokeColor=none;fillColor=none;align=left;verticalAlign=top;spacingLeft=4;spacingRight=4;overflow=hidden;rotatable=0;points=[[0,0.5],[1,0.5]];portConstraint=eastwest;" vertex="1" parent="2">
                    <mxGeometry y="34" width="280" height="26" as="geometry"/>
                </mxCell>
                <mxCell id="6" value="UserProfile" style="swimlane;fontStyle=1;align=center;verticalAlign=top;childLayout=stackLayout;horizontal=1;startSize=26;horizontalStack=0;resizeParent=1;resizeParentMax=0;resizeLast=0;collapsible=1;marginBottom=0;" vertex="1" parent="1">
                    <mxGeometry x="110" y="300" width="230" height="180" as="geometry"/>
                </mxCell>
                <mxCell id="7" value="String Username&#10;String email&#10;String profilePictureUrl&#10;list&lt;String&gt; statusMessages" style="text;strokeColor=none;fillColor=none;align=left;verticalAlign=top;spacingLeft=4;spacingRight=4;overflow=hidden;rotatable=0;points=[[0,0.5],[1,0.5]];portConstraint=eastwest;" vertex="1" parent="6">
                    <mxGeometry y="26" width="230" height="74" as="geometry"/>
                </mxCell>
                <mxCell id="8" value="" style="line;strokeWidth=1;fillColor=none;align=left;verticalAlign=middle;spacingTop=-1;spacingLeft=3;spacingRight=3;rotatable=0;labelPosition=right;points=[];portConstraint=eastwest;strokeColor=inherit;" vertex="1" parent="6">
                    <mxGeometry y="100" width="230" height="8" as="geometry"/>
                </mxCell>
                <mxCell id="9" value="getUsername(); String&#10;getEmail(); String&#10;getProfileUrl();String&#10;getStatusMessage(); List&lt;String&gt;" style="text;strokeColor=none;fillColor=none;align=left;verticalAlign=top;spacingLeft=4;spacingRight=4;overflow=hidden;rotatable=0;points=[[0,0.5],[1,0.5]];portConstraint=eastwest;" vertex="1" parent="6">
                    <mxGeometry y="108" width="230" height="72" as="geometry"/>
                </mxCell>
                <mxCell id="10" value="ProfilePictureDecorator" style="swimlane;fontStyle=1;align=center;verticalAlign=top;childLayout=stackLayout;horizontal=1;startSize=26;horizontalStack=0;resizeParent=1;resizeParentMax=0;resizeLast=0;collapsible=1;marginBottom=0;" vertex="1" parent="1">
                    <mxGeometry x="390" y="230" width="290" height="60" as="geometry"/>
                </mxCell>
                <mxCell id="12" value="" style="line;strokeWidth=1;fillColor=none;align=left;verticalAlign=middle;spacingTop=-1;spacingLeft=3;spacingRight=3;rotatable=0;labelPosition=right;points=[];portConstraint=eastwest;strokeColor=inherit;" vertex="1" parent="10">
                    <mxGeometry y="26" width="290" height="8" as="geometry"/>
                </mxCell>
                <mxCell id="13" value="getDecorateUserProfile(); UserProfile" style="text;strokeColor=none;fillColor=none;align=left;verticalAlign=top;spacingLeft=4;spacingRight=4;overflow=hidden;rotatable=0;points=[[0,0.5],[1,0.5]];portConstraint=eastwest;" vertex="1" parent="10">
                    <mxGeometry y="34" width="290" height="26" as="geometry"/>
                </mxCell>
                <mxCell id="14" value="StatusMessageDecorator" style="swimlane;fontStyle=1;align=center;verticalAlign=top;childLayout=stackLayout;horizontal=1;startSize=26;horizontalStack=0;resizeParent=1;resizeParentMax=0;resizeLast=0;collapsible=1;marginBottom=0;" vertex="1" parent="1">
                    <mxGeometry x="720" y="220" width="290" height="60" as="geometry"/>
                </mxCell>
                <mxCell id="16" value="" style="line;strokeWidth=1;fillColor=none;align=left;verticalAlign=middle;spacingTop=-1;spacingLeft=3;spacingRight=3;rotatable=0;labelPosition=right;points=[];portConstraint=eastwest;strokeColor=inherit;" vertex="1" parent="14">
                    <mxGeometry y="26" width="290" height="8" as="geometry"/>
                </mxCell>
                <mxCell id="17" value="getDecoratedUserProfile(); USerProfile" style="text;strokeColor=none;fillColor=none;align=left;verticalAlign=top;spacingLeft=4;spacingRight=4;overflow=hidden;rotatable=0;points=[[0,0.5],[1,0.5]];portConstraint=eastwest;" vertex="1" parent="14">
                    <mxGeometry y="34" width="290" height="26" as="geometry"/>
                </mxCell>
                <mxCell id="18" value="UserProfileDecorator" style="swimlane;fontStyle=1;align=center;verticalAlign=top;childLayout=stackLayout;horizontal=1;startSize=26;horizontalStack=0;resizeParent=1;resizeParentMax=0;resizeLast=0;collapsible=1;marginBottom=0;" vertex="1" parent="1">
                    <mxGeometry x="290" y="580" width="420" height="110" as="geometry"/>
                </mxCell>
                <mxCell id="19" value="UserProfile: userProfile" style="text;strokeColor=none;fillColor=none;align=left;verticalAlign=top;spacingLeft=4;spacingRight=4;overflow=hidden;rotatable=0;points=[[0,0.5],[1,0.5]];portConstraint=eastwest;" vertex="1" parent="18">
                    <mxGeometry y="26" width="420" height="26" as="geometry"/>
                </mxCell>
                <mxCell id="20" value="" style="line;strokeWidth=1;fillColor=none;align=left;verticalAlign=middle;spacingTop=-1;spacingLeft=3;spacingRight=3;rotatable=0;labelPosition=right;points=[];portConstraint=eastwest;strokeColor=inherit;" vertex="1" parent="18">
                    <mxGeometry y="52" width="420" height="8" as="geometry"/>
                </mxCell>
                <mxCell id="21" value="UserProfileDecorator(UserProfile: userProfile)&#10;getDecoratedUserProfile(); UserProfile" style="text;strokeColor=none;fillColor=none;align=left;verticalAlign=top;spacingLeft=4;spacingRight=4;overflow=hidden;rotatable=0;points=[[0,0.5],[1,0.5]];portConstraint=eastwest;" vertex="1" parent="18">
                    <mxGeometry y="60" width="420" height="50" as="geometry"/>
                </mxCell>
                <mxCell id="22" value="" style="endArrow=open;endFill=1;endSize=12;html=1;exitX=0.55;exitY=1.077;exitDx=0;exitDy=0;exitPerimeter=0;entryX=0.365;entryY=-0.017;entryDx=0;entryDy=0;entryPerimeter=0;" edge="1" parent="1" source="5" target="6">
                    <mxGeometry width="160" relative="1" as="geometry">
                        <mxPoint x="160" y="260" as="sourcePoint"/>
                        <mxPoint x="320" y="260" as="targetPoint"/>
                    </mxGeometry>
                </mxCell>
                <mxCell id="23" value="" style="endArrow=open;endFill=1;endSize=12;html=1;exitX=0.157;exitY=-0.045;exitDx=0;exitDy=0;exitPerimeter=0;entryX=0.9;entryY=1.028;entryDx=0;entryDy=0;entryPerimeter=0;" edge="1" parent="1" source="18" target="9">
                    <mxGeometry width="160" relative="1" as="geometry">
                        <mxPoint x="400" y="520" as="sourcePoint"/>
                        <mxPoint x="560" y="520" as="targetPoint"/>
                    </mxGeometry>
                </mxCell>
                <mxCell id="24" value="" style="endArrow=block;dashed=1;endFill=0;endSize=12;html=1;entryX=0.387;entryY=1.056;entryDx=0;entryDy=0;entryPerimeter=0;exitX=0.031;exitY=0.009;exitDx=0;exitDy=0;exitPerimeter=0;" edge="1" parent="1" source="18" target="9">
                    <mxGeometry width="160" relative="1" as="geometry">
                        <mxPoint x="90" y="600" as="sourcePoint"/>
                        <mxPoint x="250" y="600" as="targetPoint"/>
                    </mxGeometry>
                </mxCell>
                <mxCell id="25" value="" style="endArrow=open;endFill=1;endSize=12;html=1;entryX=0.452;entryY=0;entryDx=0;entryDy=0;entryPerimeter=0;exitX=0.314;exitY=1.077;exitDx=0;exitDy=0;exitPerimeter=0;" edge="1" parent="1" source="13" target="18">
                    <mxGeometry width="160" relative="1" as="geometry">
                        <mxPoint x="480" y="410" as="sourcePoint"/>
                        <mxPoint x="640" y="410" as="targetPoint"/>
                    </mxGeometry>
                </mxCell>
                <mxCell id="26" value="" style="endArrow=open;endFill=1;endSize=12;html=1;exitX=0.276;exitY=1.077;exitDx=0;exitDy=0;exitPerimeter=0;entryX=0.831;entryY=-0.036;entryDx=0;entryDy=0;entryPerimeter=0;" edge="1" parent="1" source="17" target="18">
                    <mxGeometry width="160" relative="1" as="geometry">
                        <mxPoint x="470" y="460" as="sourcePoint"/>
                        <mxPoint x="630" y="460" as="targetPoint"/>
                    </mxGeometry>
                </mxCell>
            </root>
        </mxGraphModel>
    </diagram>
</mxfile>